<svg width="246" height="49" viewBox="0 0 246 49" fill="none" xmlns="http://www.w3.org/2000/svg">
<g clip-path="url(#clip0_2_151)">
<path d="M141.924 16.5858C142.899 16.7976 143.571 17.5879 143.941 18.9567C144.311 20.3255 144.495 22.8308 144.495 26.4725C144.524 28.4709 144.439 30.4693 144.239 32.4579C144.067 33.8426 143.804 34.8049 143.448 35.3447C143.277 35.6079 143.053 35.8332 142.791 36.0065C142.529 36.1799 142.234 36.2977 141.924 36.3525V36.7453C145.22 36.7453 147.827 35.8173 149.744 33.9611C151.661 32.1049 152.617 29.6087 152.613 26.4725C152.613 23.3409 151.657 20.8459 149.744 18.9874C147.831 17.1289 145.225 16.2009 141.924 16.2031V16.5858Z" fill="#231F20"/>
<path d="M141.13 36.3427C140.153 36.1309 139.481 35.3406 139.113 33.9718C138.746 32.603 138.561 30.0977 138.559 26.4559C138.53 24.4587 138.616 22.4614 138.816 20.474C138.987 19.0915 139.25 18.1293 139.606 17.5872C139.778 17.324 140.001 17.0987 140.263 16.9253C140.525 16.752 140.82 16.6342 141.13 16.5794V16.1865C137.832 16.1865 135.225 17.1146 133.31 18.9708C131.395 20.827 130.439 23.322 130.441 26.4559C130.441 29.5921 131.398 32.0883 133.31 33.9445C135.223 35.8006 137.83 36.7287 141.13 36.7287V36.3427Z" fill="#231F20"/>
<path d="M128.439 7.89551H118.541V8.2918C118.968 8.54209 119.354 8.85537 119.688 9.22103C119.969 9.53138 120.173 9.90358 120.283 10.3074C120.372 10.6178 120.438 10.934 120.482 11.2537C120.506 11.4929 120.52 11.8208 120.52 12.241V33.1796C120.524 33.4574 120.505 33.7352 120.461 34.0097C120.355 34.332 120.171 34.6239 119.927 34.8604C119.52 35.2869 119.053 35.6528 118.541 35.9468V36.3431H130.417V35.9468C129.905 35.6528 129.438 35.2869 129.031 34.8604C128.787 34.6239 128.603 34.332 128.497 34.0097C128.453 33.7352 128.434 33.4574 128.439 33.1796V7.89551Z" fill="#231F20"/>
<path d="M108.064 36.3424H117.962V35.9461C117.536 35.6939 117.15 35.3808 116.815 35.0169C116.534 34.7065 116.33 34.3343 116.219 33.9305C116.134 33.6196 116.069 33.3035 116.024 32.9842C115.993 32.6549 115.979 32.3242 115.983 31.9935V16.5859H106.085V16.9925C106.597 17.2864 107.064 17.6523 107.472 18.0789C107.716 18.3154 107.899 18.6072 108.006 18.9295C108.049 19.2041 108.069 19.4818 108.064 19.7597V36.3424Z" fill="#231F20"/>
<path d="M107.273 32.3902V31.9974C106.648 32.2636 105.974 32.3974 105.295 32.3902C104.528 32.3902 104.006 32.2126 103.73 31.8573C103.415 31.3708 103.269 30.7949 103.312 30.2175V16.5898H93.4145V16.993C93.9215 17.2867 94.3829 17.6527 94.784 18.0793C95.0299 18.3143 95.2134 18.6067 95.318 18.93C95.3644 19.2042 95.385 19.4821 95.3797 19.7602V30.8222C95.3797 32.7421 95.8613 34.21 96.8244 35.2258C97.7876 36.2415 99.0875 36.7483 100.724 36.746C101.914 36.7222 103.077 36.3902 104.1 35.7826L107.273 32.3902Z" fill="#231F20"/>
<path d="M85.8311 16.5857C87.3078 16.8568 88.627 19.0421 89.7888 23.1416L90.025 23.063L92.8393 17.3749C91.2028 16.637 88.1523 16.2407 85.8311 16.1895V16.5857Z" fill="#231F20"/>
<path d="M85.8927 16.1934C83.3364 16.2435 81.1464 16.8128 79.3227 17.9015C77.499 18.9902 76.1923 20.2815 75.4026 21.7756C74.6175 23.2195 74.209 24.8372 74.2146 26.4798C74.2146 29.6114 75.1447 32.1065 77.0049 33.965C78.8651 35.8234 81.3666 36.7515 84.5095 36.7492C86.6984 36.7492 88.5323 36.2755 90.0114 35.3281C90.7168 34.895 91.3286 34.3261 91.8112 33.6545C92.2939 32.9829 92.6375 32.222 92.8222 31.4164V30.9996C91.4487 31.8199 89.8688 32.2312 88.2687 32.1851C86.2396 32.1851 84.7423 31.4414 83.7769 29.9542C82.8114 28.467 82.3298 26.645 82.3321 24.4881C82.3321 22.1195 82.6813 20.2565 83.3797 18.8991C84.0782 17.5417 84.9158 16.7719 85.8927 16.5897V16.1934Z" fill="#231F20"/>
<path d="M60.7802 17.2182H46.8459V16.3437L48.6056 16.1934L48.8898 16.3437H60.7802V17.2182Z" fill="#231F20"/>
<path d="M56.7231 16.9925H60.5234V16.5962H56.7231V12.6367H56.326L48.7939 16.1931L47.0513 16.586V16.9925H48.7939V32.0242C48.7939 35.1854 50.4567 36.7649 53.7822 36.7626C56.119 36.7717 58.425 36.231 60.5131 35.1843V34.7573C59.0341 34.8096 58.031 34.6719 57.5037 34.3439C56.9765 34.0159 56.7129 33.2325 56.7129 31.9935L56.7231 16.9925Z" fill="#231F20"/>
<path d="M72.1022 16.5859H62.2044V16.9925C62.6301 17.2447 63.0165 17.5578 63.3513 17.9217C63.633 18.2313 63.8361 18.6039 63.9436 19.0081C64.0317 19.3186 64.0981 19.6348 64.1422 19.9544C64.1737 20.2837 64.1874 20.6144 64.1833 20.9451V33.1892C64.1886 33.4672 64.168 33.7451 64.1217 34.0193C64.017 34.3427 63.8335 34.635 63.5876 34.87C63.186 35.2962 62.7247 35.6621 62.2181 35.9564V36.3527H74.0948V35.9564C73.5828 35.6624 73.1158 35.2965 72.7082 34.87C72.4628 34.6345 72.2794 34.3424 72.1741 34.0193C72.1291 33.745 72.1097 33.4671 72.1159 33.1892L72.1022 16.5859Z" fill="#231F20"/>
<path d="M66.0286 14.2967L66.1861 14.611L72.0611 12.6774C73.2765 12.2538 73.6702 11.5295 73.6702 10.5046C73.6747 10.2536 73.6236 10.0046 73.5206 9.77553C73.4177 9.54643 73.2653 9.34279 73.0745 9.17912C72.8643 8.9863 72.6157 8.83996 72.3449 8.7497C72.0741 8.65943 71.7872 8.62728 71.5031 8.65534C71.219 8.6834 70.944 8.77104 70.6962 8.91252C70.4484 9.05401 70.2333 9.24614 70.0651 9.47633L66.0286 14.2967Z" fill="#231F20"/>
<path d="M38.3347 16.5859H28.4369V16.9925C28.8642 17.2438 29.2519 17.557 29.5872 17.9217C29.8676 18.2323 30.0706 18.6045 30.1795 19.0081C30.2676 19.3186 30.334 19.6348 30.3781 19.9544C30.4096 20.2837 30.4233 20.6144 30.4192 20.9451V33.1892C30.4245 33.4672 30.4039 33.7451 30.3576 34.0193C30.2529 34.3427 30.0694 34.635 29.8235 34.87C29.4172 35.298 28.95 35.664 28.4369 35.9564V36.3527H41.1044V35.9564C40.4093 35.6872 39.7558 35.3214 39.1632 34.87C38.8532 34.6502 38.6017 34.3582 38.4305 34.0193C38.357 33.7489 38.3235 33.4692 38.3313 33.1892L38.3347 16.5859Z" fill="#231F20"/>
<path d="M38.4853 23.2653V23.6581C39.3973 23.46 40.3256 23.3456 41.2585 23.3165C42.1105 23.3173 42.96 23.4101 43.792 23.5932L45.8119 16.6001C44.9856 16.3107 44.1125 16.1775 43.2374 16.2072C42.1102 16.1962 41.0061 16.5261 40.0705 17.1535L38.4853 23.2653Z" fill="#231F20"/>
<path d="M9.60646 14.3721L4.07383 31.4536C3.5055 33.2095 2.14974 34.6888 0.0476132 35.8572L-0.0105896 35.8879V36.3526H8.33286V35.8572H8.24042C5.72404 35.5156 4.54972 34.7059 4.54972 33.3155C4.56127 33.0183 4.6131 32.7241 4.70379 32.4409L6.57995 26.845L14.2524 26.8757L13.9374 25.9807H6.80591L10.1851 15.4687L9.60646 14.3721Z" fill="#231F20"/>
<path d="M6.52549 26.7225L14.2287 26.7498L13.9891 26.0666H6.68297L10.1066 15.4009L9.74372 14.376L4.20767 31.4814C3.63022 33.2715 2.27102 34.7599 0.130096 35.9465V36.3428H8.23731V35.9465C5.54632 35.5775 4.47129 34.6961 4.47129 33.2989C4.48408 32.9902 4.53819 32.6845 4.63221 32.3901L6.52549 26.7225Z" fill="#231F20"/>
<path d="M16.8375 7.89551H8.2373L17.1388 32.3904C17.356 32.9603 17.4887 33.5587 17.5325 34.1669C17.5325 35.1439 16.9402 35.735 15.7522 35.9468V36.3431H28.026V35.9468C27.3139 35.6051 26.5881 34.4197 25.8486 32.3904L16.8375 7.89551Z" fill="#231F20"/>
<path d="M197.535 28.4028H185.798L197.535 14.2081V28.4028ZM214.211 25.5058H212.589C212.53 26.1354 212.341 26.7461 212.034 27.2994C211.716 27.7324 211.249 28.0329 210.723 28.1432C209.782 28.3477 208.819 28.4349 207.857 28.4028H207.409V1.41406H206.724L177.65 36.3047V37.357H197.535V48.9997H207.409V37.3843C211.46 37.4526 213.819 37.5563 214.485 37.6952C214.3 35.24 214.209 31.1746 214.211 25.499" fill="#231F20"/>
<path d="M174.072 35.4407C173.773 35.2766 173.509 35.0552 173.296 34.789C173.083 34.5228 172.924 34.2172 172.83 33.8897C172.538 32.8918 172.41 31.8536 172.45 30.815V0C170.072 1.30778 167.493 2.21069 164.818 2.67155C161.917 3.20677 158.2 3.51082 153.667 3.5837V5.13129C155.35 5.13129 156.605 5.30438 157.433 5.65056C158.262 5.99219 158.854 6.69937 159.214 7.76867C159.573 8.83797 159.748 10.5017 159.748 12.7462V30.1079C159.748 32.2875 159.247 33.7975 158.245 34.6379C157.243 35.4783 155.718 35.8973 153.671 35.8951V37.3743H176.421V35.8951C175.615 35.9318 174.811 35.7785 174.076 35.4475" fill="#231F20"/>
<path d="M219.203 31.4099C219.203 30.1058 219.591 28.831 220.317 27.7467C221.043 26.6625 222.075 25.8173 223.282 25.3183C224.489 24.8193 225.818 24.6887 227.1 24.9431C228.382 25.1975 229.559 25.8255 230.483 26.7476C231.407 27.6697 232.036 28.8445 232.291 30.1235C232.546 31.4026 232.415 32.7283 231.915 33.9331C231.415 35.1379 230.568 36.1676 229.482 36.8921C228.395 37.6166 227.118 38.0033 225.811 38.0033C224.943 38.0033 224.084 37.8328 223.282 37.5014C222.48 37.1701 221.752 36.6844 221.138 36.0722C220.525 35.4599 220.038 34.733 219.706 33.9331C219.374 33.1331 219.203 32.2757 219.203 31.4099Z" fill="#DA1C5C"/>
<path d="M219.203 16.0363C219.202 14.7321 219.589 13.457 220.315 12.3723C221.041 11.2875 222.072 10.4419 223.28 9.94233C224.487 9.44277 225.816 9.31171 227.098 9.56573C228.38 9.81976 229.557 10.4475 230.482 11.3694C231.406 12.2914 232.036 13.4662 232.291 14.7453C232.546 16.0244 232.416 17.3503 231.916 18.5553C231.416 19.7603 230.569 20.7903 229.482 21.5149C228.395 22.2396 227.118 22.6264 225.811 22.6264C224.059 22.6264 222.379 21.9322 221.14 20.6964C219.9 19.4606 219.204 17.7844 219.203 16.0363Z" fill="#00AEEF"/>
<path d="M232.788 23.8835C232.788 22.5793 233.176 21.3044 233.902 20.22C234.628 19.1356 235.66 18.2906 236.868 17.7916C238.075 17.2927 239.404 17.1623 240.686 17.417C241.968 17.6717 243.145 18.3 244.069 19.2224C244.993 20.1449 245.622 21.32 245.877 22.5993C246.131 23.8785 246 25.2043 245.499 26.4091C244.999 27.6138 244.151 28.6433 243.064 29.3674C241.977 30.0915 240.699 30.4776 239.392 30.477C238.525 30.477 237.666 30.3064 236.864 29.975C236.063 29.6436 235.335 29.1579 234.721 28.5456C234.108 27.9333 233.622 27.2064 233.29 26.4064C232.958 25.6065 232.788 24.7492 232.788 23.8835Z" fill="#514CA0"/>
</g>
<defs>
<clipPath id="clip0_2_151">
<rect width="246" height="49" fill="white"/>
</clipPath>
</defs>
</svg>
